# xmcd CD database file
#
# Track frame offsets:
#	150
#	2855
#	15655
#	21800
#	32755
#	37370
#	42460
#	52555
#	65060
#	72060
#	79260
#	88095
#	90220
#	116700
#	121715
#	132120
#	142307
#	156140
#	161975
#	163512
#	173300
#	180815
#	184500
#
# Disc length: 2790 seconds
#
# Revision: 0
# Processed by: cddbd v1.5.1PL0 Copyright (c) Steve Scherf et al.
# Submitted via: CDex 1.51
#
DISCID=230ae417
DTITLE=The Doors - American prayer
DYEAR=1978
DGENRE=Blues
TTITLE0=Awake
TTITLE1=Ghost Song
TTITLE2=Dawn's Highway
TTITLE3=Newborn Awakening
TTITLE4=To Come Of Age
TTITLE5=Black Polished Chrome   
TTITLE6=Latino Chrome
TTITLE7=Angels And Sailors
TTITLE8=Stoned Immaculate
TTITLE9=The Movie
TTITLE10=Curses, Invocations
TTITLE11=American Night
TTITLE12=Roadhouse Blues
TTITLE13=The World Is On Fire
TTITLE14=Lament
TTITLE15=The Hitchhiker
TTITLE16=An American Prayer
TTITLE17=Hour For Magic
TTITLE18=Freedom Exists
TTITLE19=A Feast Of Friends   
TTITLE20=Babylon Fading
TTITLE21=Bird Of Prey
TTITLE22=The Ghost Song
EXTD=YEAR: 1978
EXTT0=
EXTT1=
EXTT2=
EXTT3=
EXTT4=
EXTT5=
EXTT6=
EXTT7=
EXTT8=
EXTT9=
EXTT10=
EXTT11=
EXTT12=
EXTT13=
EXTT14=
EXTT15=
EXTT16=
EXTT17=
EXTT18=
EXTT19=
EXTT20=
EXTT21=
EXTT22=
PLAYORDER=
